<svg width="10" height="10" viewBox="0 0 10 10" fill="none" xmlns="http://www.w3.org/2000/svg">
<path d="M8.75 2.68701C8.80728 2.68707 8.86406 2.69833 8.91699 2.72021C8.97012 2.74222 9.01891 2.77526 9.05957 2.81592C9.10003 2.85649 9.13237 2.90457 9.1543 2.95752C9.17628 3.01063 9.1875 3.06801 9.1875 3.12549C9.18745 3.18278 9.1762 3.23954 9.1543 3.29248C9.13229 3.34561 9.10023 3.3944 9.05957 3.43506L5.30957 7.18506C5.26895 7.22575 5.22009 7.25775 5.16699 7.27979C5.11404 7.30172 5.05731 7.31293 5 7.31299C4.9425 7.31299 4.88514 7.3018 4.83203 7.27979C4.7789 7.25774 4.73009 7.22578 4.68945 7.18506V7.18408L0.94043 3.43506C0.899687 3.39442 0.866782 3.34563 0.844727 3.29248C0.822807 3.23954 0.811578 3.18278 0.811523 3.12549C0.811523 3.06801 0.822721 3.01062 0.844727 2.95752C0.866782 2.90437 0.899687 2.85558 0.94043 2.81494C0.980944 2.77448 1.02914 2.74216 1.08203 2.72021C1.13513 2.69821 1.19252 2.68701 1.25 2.68701C1.30729 2.68707 1.36405 2.69829 1.41699 2.72021C1.47014 2.74227 1.51893 2.77518 1.55957 2.81592L4.99902 6.25635L8.43945 2.81592H8.44043C8.48109 2.77526 8.5289 2.74222 8.58203 2.72021C8.63512 2.69824 8.69254 2.68701 8.75 2.68701Z" fill="#272727" stroke="#272727" stroke-width="0.25"/>
</svg>
